<svg version="1" xmlns="http://www.w3.org/2000/svg" width="693.333" height="693.333" viewBox="0 0 520.000000 520.000000"><path d="M0 260v260h520V0H0v260zM236 99.5c16.2 21.7 29.7 39.4 30 39.4.3 0 13.8-17.7 30-39.4L325.5 60h60.3c33.2 0 60.2.4 60 .8-.1.4-27 45.1-59.5 99.4-32.6 54.2-59.3 99.1-59.3 99.6 0 .6 26.1 44.6 58.1 97.9 31.9 53.2 58.7 98 59.5 99.5l1.5 2.8H325.5L296 420.5c-16.2-21.7-29.7-39.4-30-39.4-.3 0-13.8 17.7-30 39.4L206.5 460H86v-20.5l59.5-89.2c32.7-49.1 59.5-89.7 59.5-90.3 0-.6-26.8-41.2-59.5-90.3L86 80.5V60h120.5L236 99.5z"/></svg>